<svg width="17" height="17" viewBox="0 0 17 17" fill="none" xmlns="http://www.w3.org/2000/svg">
<path d="M15.9775 13.2475C15.9775 13.5175 15.9175 13.795 15.79 14.065C15.6625 14.335 15.4975 14.59 15.28 14.83C14.9125 15.235 14.5075 15.5275 14.05 15.715C13.6 15.9025 13.1125 16 12.5875 16C11.8225 16 11.005 15.82 10.1425 15.4525C9.28 15.085 8.4175 14.59 7.5625 13.9675C6.7 13.3375 5.8825 12.64 5.1025 11.8675C4.33 11.0875 3.6325 10.27 3.01 9.415C2.395 8.56 1.9 7.705 1.54 6.8575C1.18 6.0025 1 5.185 1 4.405C1 3.895 1.09 3.4075 1.27 2.9575C1.45 2.5 1.735 2.08 2.1325 1.705C2.6125 1.2325 3.1375 1 3.6925 1C3.9025 1 4.1125 1.045 4.3 1.135C4.495 1.225 4.6675 1.36 4.8025 1.555L6.5425 4.0075C6.6775 4.195 6.775 4.3675 6.8425 4.5325C6.91 4.69 6.9475 4.8475 6.9475 4.99C6.9475 5.17 6.895 5.35 6.79 5.5225C6.6925 5.695 6.55 5.875 6.37 6.055L5.8 6.6475C5.7175 6.73 5.68 6.8275 5.68 6.9475C5.68 7.0075 5.6875 7.06 5.7025 7.12C5.725 7.18 5.7475 7.225 5.7625 7.27C5.8975 7.5175 6.13 7.84 6.46 8.23C6.7975 8.62 7.1575 9.0175 7.5475 9.415C7.9525 9.8125 8.3425 10.18 8.74 10.5175C9.13 10.8475 9.4525 11.0725 9.7075 11.2075C9.745 11.2225 9.79 11.245 9.8425 11.2675C9.9025 11.29 9.9625 11.2975 10.03 11.2975C10.1575 11.2975 10.255 11.2525 10.3375 11.17L10.9075 10.6075C11.095 10.42 11.275 10.2775 11.4475 10.1875C11.62 10.0825 11.7925 10.03 11.98 10.03C12.1225 10.03 12.2725 10.06 12.4375 10.1275C12.6025 10.195 12.775 10.2925 12.9625 10.42L15.445 12.1825C15.64 12.3175 15.775 12.475 15.8575 12.6625C15.9325 12.85 15.9775 13.0375 15.9775 13.2475Z" stroke="currentColor" stroke-width="1.5" stroke-miterlimit="10"/>
<path d="M13.3745 6.25C13.3745 5.8 13.022 5.11 12.497 4.5475C12.017 4.03 11.3795 3.625 10.7495 3.625" stroke="currentColor" stroke-width="1.5" stroke-linecap="round" stroke-linejoin="round"/>
<path d="M15.9995 6.25C15.9995 3.3475 13.652 1 10.7495 1" stroke="currentColor" stroke-width="1.5" stroke-linecap="round" stroke-linejoin="round"/>
</svg>
